<svg width="255" height="220" viewBox="0 0 255 220" fill="none" xmlns="http://www.w3.org/2000/svg">
<rect width="255" height="220" rx="14.0157" fill="#F8F8FA"/>
<mask id="mask0_1076_6336" style="mask-type:luminance" maskUnits="userSpaceOnUse" x="61" y="43" width="133" height="133">
<path d="M193.626 43.6873H61.6871V175.626H193.626V43.6873Z" fill="white"/>
</mask>
<g mask="url(#mask0_1076_6336)">
<path d="M127.656 175.626C164.09 175.626 193.626 146.09 193.626 109.656C193.626 73.2226 164.09 43.6873 127.656 43.6873C91.2225 43.6873 61.6871 73.2226 61.6871 109.656C61.6871 146.09 91.2225 175.626 127.656 175.626Z" fill="#0B53BF"/>
<path d="M139.531 61.6223V70.1159C156.477 75.2285 168.887 90.9786 168.887 109.656C168.887 128.334 156.477 144.084 139.531 149.196V157.69C161.136 152.412 177.133 132.91 177.133 109.656C177.133 86.402 161.136 66.8999 139.531 61.6223Z" fill="white"/>
<path d="M86.4256 109.656C86.4256 90.9786 98.8361 75.2285 115.782 70.1159V61.6223C94.177 66.8999 78.1794 86.402 78.1794 109.656C78.1794 132.91 94.177 152.412 115.782 157.69V149.196C98.8361 144.125 86.4256 128.334 86.4256 109.656Z" fill="white"/>
<path d="M145.386 118.851C145.386 101.988 118.957 108.914 118.957 99.5962C118.957 96.2565 121.637 94.1125 126.75 94.1125C132.852 94.1125 134.954 97.0811 135.614 101.08H144.025C143.275 93.5748 138.967 88.8357 131.78 87.424V80.7949H123.534V87.1873C115.66 88.1901 110.711 92.7753 110.711 99.5962C110.711 116.542 137.181 110.192 137.181 119.346C137.181 122.809 133.841 125.118 128.193 125.118C120.812 125.118 118.38 121.861 117.473 117.367H109.268C109.799 125.588 114.868 130.733 123.534 132.017V138.518H131.78V132.103C140.237 131.011 145.386 126.091 145.386 118.851Z" fill="white"/>
</g>
</svg>
